<svg id="Capa_1" enable-background="new 0 0 512 512" height="512" viewBox="0 0 512 512" width="512" xmlns="http://www.w3.org/2000/svg"><g><g><g><g><g><g><g><g><g><g><g><g><g><g><circle cx="256" cy="256" fill="#f2636f" r="256"/></g></g></g></g></g></g></g></g></g></g></g></g></g><path d="m297.088 177.516-18.638 18.638 44.616 44.616-35.114 35.114-69.757-69.757-103.735 103.735-3.594 35.208 166.073 166.073c131.589-10.654 235.061-120.809 235.061-255.143 0-.071-.003-.141-.003-.212l-99.437-99.437z" fill="#ef294a"/><g><path d="m252.416 225.632-39.142-39.109-130.478 130.478 28.07 28.07 102.437-102.438 39.113 39.114 11.298-19.47z" fill="#f4c100"/><path d="m278.42 156.456.031 39.697 66.29-.053-60.915 60.916-31.41-31.384v56.115l3.411 3.411-.011.011 27.999 27.997 88.996-88.996-.052 66.291 39.697.031.104-134.141z" fill="#f99700"/></g></g></svg>