<svg id="Capa_1" enable-background="new 0 0 512 512" height="512" viewBox="0 0 512 512" width="512" xmlns="http://www.w3.org/2000/svg"><g><g><g><g><g><g><g><g><g><g><g><g><g><g><circle cx="256" cy="256" fill="#aaebff" r="256"/></g></g></g></g></g></g></g></g></g></g></g></g></g><path d="m512 256c0-9.535-.539-18.943-1.554-28.208l-84.867-84.867-339.157 226.15 157.361 142.628c4.049.19 8.121.297 12.217.297 141.385 0 256-114.615 256-256z" fill="#75d3ff"/><g><path d="m256.527 142.925h-150.105l-12.422 216.734 162-.494 20.327-117.24z" fill="#f7f9fa"/><path d="m425.578 142.925h-169.578v216.24l169.578-10z" fill="#e5eaee"/><g><path d="m69.609 267.283h186.745v15h-186.745z" fill="#636dec" transform="matrix(.606 -.796 .796 .606 -154.377 238.012)"/></g><path d="m256 236.537-30.901-40.59-11.935 9.086 42.836 56.266 6.779-5.344z" fill="#636dec"/><ellipse cx="219.015" cy="200.49" fill="#3dd7c4" rx="23.402" ry="23.402" transform="matrix(.707 -.707 .707 .707 -77.62 213.589)"/><path d="m326.341 328.931-70.341-92.394v24.762l70.284 92.319.001-.001 64.527-83.625-11.935-9.086z" fill="#343dc0"/><circle cx="378.877" cy="269.992" fill="#2bb39d" r="23.402"/><g><path d="m256 349.075h-149.578v-206.24h-20v226.24h169.578l11.502-9.91z" fill="#f2636f"/><path d="m256 349.12h169.578v20h-169.578z" fill="#ef294a"/></g></g></g></svg>